<?xml version="1.0" encoding="UTF-8" standalone="no"?>
<svg
   viewBox="0 0 1080 1080"
   width="1080"
   height="1080"
   version="1.1"
   id="svg22"
   sodipodi:docname="flyer.svg"
   inkscape:export-filename="konecosultflyer.svg"
   inkscape:export-xdpi="96"
   inkscape:export-ydpi="96"
   inkscape:version="1.4.3 (0d15f75, 2025-12-25)"
   xmlns:inkscape="http://www.inkscape.org/namespaces/inkscape"
   xmlns:sodipodi="http://sodipodi.sourceforge.net/DTD/sodipodi-0.dtd"
   xmlns:xlink="http://www.w3.org/1999/xlink"
   xmlns="http://www.w3.org/2000/svg"
   xmlns:svg="http://www.w3.org/2000/svg">
  <sodipodi:namedview
     id="namedview22"
     pagecolor="#ffffff"
     bordercolor="#999999"
     borderopacity="1"
     inkscape:showpageshadow="2"
     inkscape:pageopacity="0"
     inkscape:pagecheckerboard="0"
     inkscape:deskcolor="#d1d1d1"
     inkscape:zoom="0.45833333"
     inkscape:cx="540"
     inkscape:cy="537.81819"
     inkscape:window-width="1366"
     inkscape:window-height="697"
     inkscape:window-x="-8"
     inkscape:window-y="-8"
     inkscape:window-maximized="1"
     inkscape:current-layer="g18" />
  <defs
     id="defs2">
    <style
       id="style1">
      @import url('https://fonts.googleapis.com/css2?family=Nunito:wght@400;600;700;800&amp;display=swap');
      text {
        font-family: 'Nunito', sans-serif;
      }
      .bg-dark { fill: #0f1229; }
      .text-white { fill: #ffffff; font-family: 'Roboto', sans-serif; }
      .text-blue { fill: #2c4488; }
      .text-green { fill: #28a745; font-family: 'Roboto', sans-serif; }
      .text-gray { fill: #555555; font-family: 'Roboto', sans-serif; }
      .accent-yellow { fill: #fdd835; }
      .card-bg { fill: #f0f2f5; }
      .title-gradient {
        fill: url(#headerGradient);
        font-weight: 800; /* Extra Bold for thickness */
      }
    </style>
    <linearGradient
       id="headerGradient"
       x1="0%"
       y1="0%"
       x2="100%"
       y2="0%">
      <stop
         offset="0%"
         stop-color="#7c3aed"
         id="stop1" />
      <stop
         offset="100%"
         stop-color="#2563eb"
         id="stop2" />
    </linearGradient>
    <linearGradient
       inkscape:collect="always"
       xlink:href="#headerGradient"
       id="linearGradient22"
       x1="59.060439"
       y1="167.6871"
       x2="133.72919"
       y2="167.6871"
       gradientTransform="matrix(6.0390341,0,0,0.6660144,-248.7883,-72.684303)"
       gradientUnits="userSpaceOnUse" />
    <linearGradient
       inkscape:collect="always"
       xlink:href="#headerGradient"
       id="linearGradient23"
       x1="36.324322"
       y1="47.756613"
       x2="215.68504"
       y2="47.756613"
       gradientTransform="matrix(3.2879254,0,0,0.38656054,-9.145907,-1.3672612)"
       gradientUnits="userSpaceOnUse" />
  </defs>
  <!-- Background: AI Generated Image -->
  <image
     href="flyer_bg.png"
     width="100%"
     height="100%"
     preserveAspectRatio="xMidYMid slice"
     opacity="0.9"
     id="image2" />
  <!-- Dark overlay to ensure text readability -->
  <rect
     width="100%"
     height="100%"
     fill="#0f1229"
     opacity="0.4"
     id="rect2" />
  <!-- Header Banner -->
  <rect
     x="50"
     y="50"
     width="980"
     height="120"
     rx="10"
     fill="white"
     filter="url(#shadow)"
     id="rect3" />
  <!-- Logo Section in Header -->
  <g
     transform="matrix(1.0348536,0,0,1.1435407,151.58176,57.368421)"
     id="g7">
    <!-- Correct Logo Icon -->
    <g
       transform="matrix(0.4,0,0,0.4,10,4.7531383)"
       id="g6">
      <!-- Container background -->
      <circle
         cx="100"
         cy="100"
         r="95"
         fill="#2563eb"
         id="circle3" />
      <!-- Left bracket -->
      <path
         d="m 60,55 q -15,45 0,90"
         stroke="#ffffff"
         stroke-width="16"
         stroke-linecap="round"
         fill="none"
         id="path3" />
      <!-- Right bracket -->
      <path
         d="m 140,55 q 15,45 0,90"
         stroke="#ffffff"
         stroke-width="16"
         stroke-linecap="round"
         fill="none"
         id="path4" />
      <!-- Water droplet -->
      <path
         d="m 100,55 c 0,0 28,27 28,53 0,17 -13,30 -28,34 -15,-4 -28,-17 -28,-34 0,-26 28,-53 28,-53 z"
         fill="#ffffff"
         id="path5" />
      <!-- Crescent notch -->
      <path
         d="m 102,132 q 13,-2 18,-12 -4,8 -12,12 -3,1 -6,0 z"
         fill="rgba(0,0,0,0.15)"
         id="path6" />
    </g>
    <!-- Title -->
    <text
       x="103.59194"
       y="71.912331"
       font-size="72.1522px"
       class="title-gradient"
       font-family="'Nunito', sans-serif"
       id="text6"
       style="fill:url(#linearGradient23);stroke-width:1.12738"
       transform="scale(1.0438819,0.95796277)">Kone Consult</text>
  </g>
  <!-- Tagline -->
  <text
     x="540"
     y="210"
     font-size="28"
     text-anchor="middle"
     font-style="italic"
     fill="#8899ac"
     font-family="'Nunito', sans-serif"
     font-weight="700"
     id="text7">
     Research the right way.
   </text>
  <!-- Main Content Area -->
  <!-- Left Side: Student Image -->
  <g
     transform="translate(50, 300)"
     id="g8">
    <!-- Yellow Blob Shape acts as background/frame -->
    <path
       d="M50 50 Q100 0 200 20 T350 100 T400 300 T300 500 T150 550 T50 450 T0 250 Z"
       class="accent-yellow"
       transform="scale(1.1)"
       id="path7" />
    <!-- Student Image Linked -->
    <defs
       id="defs8">
      <clipPath
         id="blobClip">
        <path
           d="M50 50 Q100 0 200 20 T350 100 T400 300 T300 500 T150 550 T50 450 T0 250 Z"
           transform="scale(1.1)"
           id="path8" />
      </clipPath>
    </defs>
    <!-- Image placed relatively to cover the blob area.  -->
    <!-- Adjusted width/height to fit approx 450x600 box of the blob area -->
    <image
       href="student_flyer.png"
       x="-50"
       y="-50"
       width="600"
       height="600"
       clip-path="url(#blobClip)"
       preserveAspectRatio="xMidYMid slice"
       id="image8" />
    <!-- Tagline overlay -->
    <rect
       x="40"
       y="640"
       width="420"
       height="60"
       rx="10"
       fill="rgba(255, 255, 255, 0.9)"
       id="rect8" />
    <text
       x="250"
       y="680"
       text-anchor="middle"
       font-size="28"
       font-weight="700"
       fill="#2c4488"
       font-family="'Nunito', sans-serif"
       id="text8">Enroll Now</text>
  </g>
  <!-- Right Side: Services Card -->
  <g
     transform="matrix(0.9525256,0,0,1,450,240)"
     id="g20">
    <rect
       width="607.48676"
       height="700"
       rx="20.947819"
       fill="#f0eff5"
       filter="url(#shadow)"
       id="rect9"
       x="0"
       y="0"
       style="stroke-width:1.02342" />
    <!-- "Our Services" Header -->
    <rect
       x="72.323074"
       y="26.851204"
       width="474.67511"
       height="93.20668"
       rx="15.822502"
       fill="none"
       stroke="#3b5998"
       stroke-width="4.70336"
       id="rect10" />
    <rect
       x="150"
       y="50"
       width="291.45282"
       height="40"
       rx="10.409029"
       fill="#dce4f2"
       opacity="0.5"
       id="rect11"
       style="stroke-width:1.02025" />
    <text
       x="332.81052"
       y="87.75676"
       text-anchor="middle"
       font-size="64.1764px"
       class="title-gradient"
       font-family="'Nunito', sans-serif"
       id="text11"
       style="fill:url(#linearGradient22);stroke-width:2.00551"
       transform="scale(0.93547736,1.068973)">Our Services</text>
    <!-- List Items -->
    <g
       transform="matrix(1.0998954,0,0,1.0260242,21.937881,167.98453)"
       font-size="36px"
       class="text-blue"
       font-family="Nunito, sans-serif"
       font-weight="700"
       id="g18">
      <!-- Item 1 -->
      <text
         x="60"
         y="0"
         id="text12">Data Collection</text>
      <g
         transform="matrix(1.5,0,0,1.5,0,-25)"
         id="g12">
        <circle
           cx="12"
           cy="12"
           r="10"
           fill="#28a745"
           id="circle12" />
        <path
           d="M 9,16.17 4.83,12 3.41,13.41 9,19 21,7 19.59,5.59 Z"
           fill="#ffffff"
           id="path12" />
      </g>
      <!-- Item 2 -->
      <text
         x="60"
         y="60"
         id="text13">Data Analysis</text>
      <g
         transform="matrix(1.5,0,0,1.5,0,35)"
         id="g13">
        <circle
           cx="12"
           cy="12"
           r="10"
           fill="#28a745"
           id="circle13" />
        <path
           d="M 9,16.17 4.83,12 3.41,13.41 9,19 21,7 19.59,5.59 Z"
           fill="#ffffff"
           id="path13" />
      </g>
      <!-- Item 3 -->
      <text
         x="60"
         y="120"
         id="text14">Report Writing</text>
      <g
         transform="matrix(1.5,0,0,1.5,0,95)"
         id="g14">
        <circle
           cx="12"
           cy="12"
           r="10"
           fill="#28a745"
           id="circle14" />
        <path
           d="M 9,16.17 4.83,12 3.41,13.41 9,19 21,7 19.59,5.59 Z"
           fill="#ffffff"
           id="path14" />
      </g>
      <!-- Item 4 -->
      <text
         x="60"
         y="180"
         id="text15">Academic Thesis</text>
      <g
         transform="matrix(1.5,0,0,1.5,0,155)"
         id="g15">
        <circle
           cx="12"
           cy="12"
           r="10"
           fill="#28a745"
           id="circle15" />
        <path
           d="M 9,16.17 4.83,12 3.41,13.41 9,19 21,7 19.59,5.59 Z"
           fill="#ffffff"
           id="path15" />
      </g>
      <!-- Item 5 -->
      <text
         x="60"
         y="240"
         id="text16">Assignment Help</text>
      <g
         transform="matrix(1.5,0,0,1.5,0,215)"
         id="g16">
        <circle
           cx="12"
           cy="12"
           r="10"
           fill="#28a745"
           id="circle16" />
        <path
           d="M 9,16.17 4.83,12 3.41,13.41 9,19 21,7 19.59,5.59 Z"
           fill="#ffffff"
           id="path16" />
      </g>
      <!-- Item 6 -->
      <text
         x="60"
         y="300"
         id="text17">Review and Publication</text>
      <g
         transform="matrix(1.5,0,0,1.5,0,275)"
         id="g17">
        <circle
           cx="12"
           cy="12"
           r="10"
           fill="#28a745"
           id="circle17" />
        <path
           d="M 9,16.17 4.83,12 3.41,13.41 9,19 21,7 19.59,5.59 Z"
           fill="#ffffff"
           id="path17" />
      </g>
    </g>
    <!-- QR Code & Link Section -->
    <g
       transform="translate(290,530)"
       id="g19">
      <text
         x="21.934313"
         y="-8.2573214"
         text-anchor="middle"
         font-size="31.7596px"
         fill="#8899ac"
         font-family="'Nunito', sans-serif"
         font-weight="700"
         id="text18"
         transform="scale(0.9911685,1.0089102)"
         style="stroke-width:1.76442">Learn More</text>
      <image
         href="qr_code_branded.svg"
         x="-50"
         y="-2"
         width="148.10178"
         height="126.18182"
         id="image18" />
      <text
         x="19.902866"
         y="147.34201"
         text-anchor="middle"
         font-size="25.6333px"
         fill="#2c4488"
         font-family="'Nunito', sans-serif"
         font-weight="700"
         id="text19"
         transform="scale(1.0219809,0.97849187)"
         style="stroke-width:1.60208">consult.koneacademy.io</text>
    </g>
  </g>
  <!-- Footer Contact Info -->
  <rect
     x="50"
     y="930"
     width="980"
     height="100"
     rx="10"
     fill="white"
     filter="url(#shadow)"
     id="rect20" />
  <g
     transform="matrix(0.96922426,0,0,1.2139037,50.156956,965.90909)"
     id="g23">
    <!-- Contact Info Section -->
    <text
       x="19.682474"
       y="-5"
       font-size="18px"
       class="text-gray"
       font-family="'Nunito', sans-serif"
       font-weight="700"
       id="text22">CONTACT US ON</text>
    <!-- Phone Icon (Material Design) -->
    <path
       d="m 23.499458,20.948 c 1.728,3.396 4.512,6.168 7.908,7.908 l 2.64,-2.64 c 0.324,-0.324 0.804,-0.432 1.224,-0.288 1.344,0.444 2.796,0.684 4.284,0.684 0.66,0 1.2,0.54 1.2,1.2 V 32 c 0,0.66 -0.54,1.2 -1.2,1.2 -11.268,0 -20.4,-9.132 -20.4,-20.4 0,-0.66 0.54,-1.2 1.2,-1.2 h 4.2 c 0.66,0 1.2,0.54 1.2,1.2 0,1.5 0.24,2.94 0.684,4.284 0.132,0.42 0.036,0.888 -0.3,1.224 z"
       fill="#2c4488"
       id="path20"
       style="stroke-width:1.2" />
    <text
       x="50.55545"
       y="30"
       font-size="20px"
       class="text-blue"
       font-family="'Nunito', sans-serif"
       font-weight="700"
       id="text20">+233 55 199 3820</text>
    <!-- Email Icon (Material Design) -->
    <path
       d="m 287.17437,12.8 h -19.2 c -1.32,0 -2.388,1.08 -2.388,2.4 l -0.012,14.4 c 0,1.32 1.08,2.4 2.4,2.4 h 19.2 c 1.32,0 2.4,-1.08 2.4,-2.4 V 15.2 c 0,-1.32 -1.08,-2.4 -2.4,-2.4 z m 0,4.8 -9.6,6 -9.6,-6 v -2.4 l 9.6,6 9.6,-6 z"
       fill="#2c4488"
       id="path21"
       style="stroke-width:1.2" />
    <text
       x="296.1109"
       y="30"
       font-size="20px"
       class="text-blue"
       font-family="'Nunito', sans-serif"
       font-weight="700"
       id="text21">philipkone45@gmail.com</text>
    <!-- Follow Us Section -->
    <text
       x="624.76172"
       y="-5"
       font-size="18px"
       class="text-gray"
       font-family="'Nunito', sans-serif"
       font-weight="700"
       id="text23">FOLLOW US ON</text>
    <!-- Social Icons Group -->
    <g
       transform="translate(616.50808,10)"
       id="socialIcons">
      <!-- TikTok -->
      <g
         transform="scale(1.5)"
         fill="#2c4488"
         id="g1">
        <path
           d="m 9,0 h 1.98 c 0.144,0.715 0.54,1.617 1.235,2.512 C 12.895,3.389 13.797,4 15,4 V 6 C 13.247,6 11.93,5.186 11,4.171 V 11 A 5,5 0 1 1 6,6 v 2 a 3,3 0 1 0 3,3 z"
           id="path1" />
      </g>
      <!-- Instagram -->
      <g
         transform="matrix(1.5,0,0,1.5,30,0)"
         fill="#2c4488"
         id="g2">
        <path
           d="M 8,0 C 5.829,0 5.556,0.01 4.703,0.048 3.85,0.088 3.269,0.222 2.76,0.42 A 3.9,3.9 0 0 0 1.343,1.343 3.9,3.9 0 0 0 0.42,2.76 C 0.222,3.268 0.087,3.85 0.048,4.7 0.01,5.555 0,5.827 0,8.001 c 0,2.172 0.01,2.444 0.048,3.297 0.04,0.852 0.174,1.433 0.372,1.942 0.205,0.526 0.478,0.972 0.923,1.417 0.444,0.445 0.89,0.719 1.416,0.923 0.51,0.198 1.09,0.333 1.942,0.372 C 5.555,15.99 5.827,16 8,16 c 2.173,0 2.444,-0.01 3.298,-0.048 0.851,-0.04 1.434,-0.174 1.943,-0.372 a 3.9,3.9 0 0 0 1.416,-0.923 c 0.445,-0.445 0.718,-0.891 0.923,-1.417 0.197,-0.509 0.332,-1.09 0.372,-1.942 C 15.99,10.445 16,10.173 16,8 16,5.827 15.99,5.555 15.952,4.701 15.912,3.85 15.777,3.268 15.58,2.76 A 3.9,3.9 0 0 0 14.657,1.343 3.9,3.9 0 0 0 13.24,0.42 C 12.73,0.222 12.148,0.087 11.297,0.048 10.443,0.01 10.172,0 7.998,0 Z M 7.283,1.442 h 0.718 c 2.136,0 2.389,0.007 3.232,0.046 0.78,0.035 1.204,0.166 1.486,0.275 0.373,0.145 0.64,0.319 0.92,0.599 0.28,0.28 0.453,0.546 0.598,0.92 0.11,0.281 0.24,0.705 0.275,1.485 0.039,0.843 0.047,1.096 0.047,3.231 0,2.135 -0.008,2.389 -0.047,3.232 -0.035,0.78 -0.166,1.203 -0.275,1.485 a 2.5,2.5 0 0 1 -0.599,0.919 c -0.28,0.28 -0.546,0.453 -0.92,0.598 -0.28,0.11 -0.704,0.24 -1.485,0.276 -0.843,0.038 -1.096,0.047 -3.232,0.047 -2.136,0 -2.39,-0.009 -3.233,-0.047 -0.78,-0.036 -1.203,-0.166 -1.485,-0.276 a 2.5,2.5 0 0 1 -0.92,-0.598 2.5,2.5 0 0 1 -0.6,-0.92 C 1.654,12.433 1.523,12.009 1.488,11.229 1.45,10.386 1.442,10.133 1.442,7.996 1.442,5.859 1.45,5.608 1.488,4.765 1.524,3.985 1.654,3.561 1.764,3.279 1.909,2.906 2.083,2.639 2.363,2.359 2.643,2.079 2.909,1.906 3.283,1.761 3.565,1.651 3.988,1.521 4.768,1.485 5.506,1.451 5.792,1.441 7.283,1.44 Z m 4.988,1.328 a 0.96,0.96 0 1 0 0,1.92 0.96,0.96 0 0 0 0,-1.92 m -4.27,1.122 a 4.109,4.109 0 1 0 0,8.217 4.109,4.109 0 0 0 0,-8.217 m 0,1.441 a 2.667,2.667 0 1 1 0,5.334 2.667,2.667 0 0 1 0,-5.334"
           id="path2" />
      </g>
      <!-- Facebook -->
      <g
         transform="matrix(1.5,0,0,1.5,60,0)"
         fill="#2c4488"
         id="g9">
        <path
           d="M 16,8.049 C 16,3.603 12.418,-0.001 8,-0.001 3.58,0 -0.002,3.603 -0.002,8.05 c 0,4.017 2.926,7.347 6.75,7.951 V 10.376 H 4.718 V 8.05 H 6.75 V 6.275 c 0,-2.017 1.195,-3.131 3.022,-3.131 0.876,0 1.791,0.157 1.791,0.157 v 1.98 h -1.009 c -0.993,0 -1.303,0.621 -1.303,1.258 v 1.51 h 2.218 l -0.354,2.326 H 9.25 V 16 C 13.074,15.396 16,12.066 16,8.049"
           id="path9" />
      </g>
      <!-- X (Twitter) -->
      <g
         transform="matrix(1.5,0,0,1.5,90,0)"
         fill="#2c4488"
         id="g10">
        <path
           d="m 12.6,0.75 h 2.454 L 9.694,6.892 16,15.25 H 11.063 L 7.196,10.18 2.771,15.25 H 0.316 L 6.049,8.68 0,0.75 H 5.063 L 8.558,5.383 12.601,0.75 Z M 11.74,13.778 H 13.1 L 4.323,2.145 H 2.865 Z"
           id="path10" />
      </g>
      <!-- Youtube -->
      <g
         transform="matrix(1.5,0,0,1.5,120,0)"
         fill="#2c4488"
         id="g11">
        <path
           d="M 8.051,1.999 H 8.14 c 0.822,0.003 4.987,0.033 6.11,0.335 a 2.01,2.01 0 0 1 1.415,1.42 c 0.101,0.38 0.172,0.883 0.22,1.402 l 0.01,0.104 0.022,0.26 0.008,0.104 c 0.065,0.914 0.073,1.77 0.074,1.957 v 0.075 c -0.001,0.194 -0.01,1.108 -0.082,2.06 L 15.909,9.821 15.9,9.925 c -0.05,0.572 -0.124,1.14 -0.235,1.558 a 2.01,2.01 0 0 1 -1.415,1.42 c -1.16,0.312 -5.569,0.334 -6.18,0.335 H 7.928 c -0.309,0 -1.587,-0.006 -2.927,-0.052 L 4.831,13.18 4.744,13.176 4.573,13.169 4.402,13.162 C 3.292,13.113 2.235,13.034 1.748,12.902 A 2.01,2.01 0 0 1 0.333,11.483 C 0.222,11.066 0.148,10.497 0.098,9.925 L 0.09,9.82 0.082,9.716 A 31,31 0 0 1 0,7.68 V 7.557 C 0.002,7.342 0.01,6.599 0.064,5.779 L 0.071,5.676 0.074,5.624 0.082,5.52 0.104,5.26 0.114,5.156 C 0.162,4.637 0.233,4.133 0.334,3.754 A 2.01,2.01 0 0 1 1.749,2.334 C 2.236,2.204 3.293,2.124 4.403,2.074 L 4.573,2.067 4.745,2.061 4.831,2.058 5.002,2.051 A 100,100 0 0 1 7.858,2 Z M 6.4,5.209 v 4.818 l 4.157,-2.408 z"
           id="path11" />
      </g>
      <!-- LinkedIn -->
      <g
         transform="matrix(1.5,0,0,1.5,150,0)"
         fill="#2c4488"
         id="g21">
        <path
           d="M 0,1.146 C 0,0.513 0.526,0 1.175,0 h 13.65 C 15.474,0 16,0.513 16,1.146 V 14.854 C 16,15.487 15.474,16 14.825,16 H 1.175 C 0.526,16 0,15.487 0,14.854 Z M 4.943,13.394 V 6.169 H 2.542 v 7.225 z M 3.743,5.182 C 4.58,5.182 5.101,4.628 5.101,3.934 5.086,3.225 4.581,2.686 3.759,2.686 2.937,2.686 2.4,3.226 2.4,3.934 c 0,0.694 0.521,1.248 1.327,1.248 z m 4.908,8.212 V 9.359 c 0,-0.216 0.016,-0.432 0.08,-0.586 0.173,-0.431 0.568,-0.878 1.232,-0.878 0.869,0 1.216,0.662 1.216,1.634 v 3.865 H 13.58 V 9.25 c 0,-2.22 -1.184,-3.252 -2.764,-3.252 -1.274,0 -1.845,0.7 -2.165,1.193 V 7.216 H 8.635 L 8.651,7.191 V 6.169 h -2.4 c 0.03,0.678 0,7.225 0,7.225 z"
           id="path18" />
      </g>
      <!-- Discord -->
      <g
         transform="matrix(1.5,0,0,1.5,180,0)"
         fill="#2c4488"
         id="g22">
        <path
           d="M 13.545,2.907 A 13.2,13.2 0 0 0 10.288,1.896 0.05,0.05 0 0 0 10.236,1.921 C 10.095,2.171 9.939,2.498 9.83,2.754 a 12.2,12.2 0 0 0 -3.658,0 A 8,8 0 0 0 5.76,1.921 0.05,0.05 0 0 0 5.708,1.896 C 4.583,2.09 3.488,2.43 2.451,2.907 A 0.04,0.04 0 0 0 2.43,2.925 C 0.356,6.024 -0.213,9.047 0.066,12.032 q 0.003,0.022 0.021,0.037 a 13.3,13.3 0 0 0 3.995,2.02 0.05,0.05 0 0 0 0.056,-0.019 Q 4.601,13.44 4.956,12.741 A 0.05,0.05 0 0 0 4.946,12.682 L 4.928,12.671 A 9,9 0 0 1 3.68,12.076 0.05,0.05 0 0 1 3.66,12.01 l 0.015,-0.019 q 0.127,-0.095 0.248,-0.195 a 0.05,0.05 0 0 1 0.051,-0.007 c 2.619,1.196 5.454,1.196 8.041,0 a 0.05,0.05 0 0 1 0.053,0.007 q 0.121,0.1 0.248,0.195 a 0.05,0.05 0 0 1 -0.004,0.085 8,8 0 0 1 -1.249,0.594 0.05,0.05 0 0 0 -0.03,0.03 0.05,0.05 0 0 0 0.003,0.041 c 0.24,0.465 0.515,0.909 0.817,1.329 a 0.05,0.05 0 0 0 0.056,0.019 13.2,13.2 0 0 0 4.001,-2.02 0.05,0.05 0 0 0 0.021,-0.037 C 16.265,8.581 15.372,5.583 13.565,2.926 a 0.03,0.03 0 0 0 -0.02,-0.019 m -8.198,7.307 c -0.789,0 -1.438,-0.724 -1.438,-1.612 0,-0.888 0.637,-1.613 1.438,-1.613 0.807,0 1.45,0.73 1.438,1.613 0,0.888 -0.637,1.612 -1.438,1.612 m 5.316,0 c -0.788,0 -1.438,-0.724 -1.438,-1.612 0,-0.888 0.637,-1.613 1.438,-1.613 0.807,0 1.451,0.73 1.438,1.613 0,0.888 -0.631,1.612 -1.438,1.612"
           id="path22" />
      </g>
    </g>
    <text
       x="834.44434"
       y="30"
       font-size="20px"
       class="text-blue"
       font-family="'Nunito', sans-serif"
       font-weight="700"
       id="text24">koneacademy</text>
  </g>
</svg>
