<?xml version="1.0" encoding="UTF-8"?>
<svg xmlns="http://www.w3.org/2000/svg" viewBox="0 0 1024 1024" role="img" aria-labelledby="title desc">
  <title id="title">KCA Logo</title>
  <desc id="desc">Traced and simplified vector version of logo192.png</desc>
  <g fill="#111" stroke="none">
    <path d="M 307 461 L 307 445 L 336 461 L 307 444 L 310 423 L 336 460 L 310 422 L 313 406 L 336 459 L 316 391 L 336 457 L 319 382 L 336 456 L 321 376 L 336 455 L 323 370 L 336 454 L 324 368 L 336 453 L 325 365 L 336 452 L 326 363 L 336 451 L 327 361 L 336 450 L 328 358 L 336 448 L 329 356 L 336 446 L 330 354 L 337 444 L 337 340 L 338 433 L 342 331 L 339 425 L 344 328 L 340 418 L 347 323 L 341 412 L 349 320 L 342 407 L 350 318 L 343 402 L 352 315 L 344 398 L 354 312 L 345 393 L 355 311 L 346 389 L 356 310 L 347 386 L 358 307 L 348 382 L 359 306 L 349 379 L 360 304 L 350 376 L 361 303 L 351 372 L 362 302 L 352 370 L 364 301 L 353 367 L 365 301 L 355 361 L 366 301 L 356 359 L 367 301 L 357 356 L 368 301 L 358 354 L 369 301 L 360 349 L 370 301 L 361 346 L 371 301 L 362 344 L 372 301 L 364 340 L 373 301 L 365 337 L 374 301 L 367 333 L 384 301 L 384 623 L 367 591 L 374 623 L 365 587 L 373 623 L 364 585 L 372 623 L 362 580 L 371 623 L 361 578 L 370 623 L 360 576 L 369 623 L 359 573 L 368 623 L 358 571 L 367 623 L 356 566 L 366 623 L 355 563 L 365 623 L 354 561 L 364 623 L 353 558 L 363 623 L 352 555 L 362 622 L 351 552 L 361 620 L 350 549 L 359 617 L 349 546 L 358 617 L 348 543 L 357 615 L 347 539 L 356 614 L 346 536 L 354 611 L 345 532 L 353 610 L 344 527 L 351 606 L 343 523 L 350 605 L 342 518 L 348 602 L 341 513 L 346 599 L 340 508 L 344 596 L 339 501 L 341 591 L 338 493 L 337 584 L 337 483 L 331 572 L 336 479 L 330 570 L 336 477 L 329 568 L 336 475 L 328 566 L 336 474 L 327 564 L 336 472 L 326 562 L 336 471 L 325 559 L 336 470 L 323 554 L 336 469 L 322 551 L 336 468 L 320 545 L 336 467 L 318 539 L 336 466 L 315 530 L 336 464 L 312 513 L 309 496 L 336 463 L 308 496 L 307 471 L 336 462 L 307 462 Z"/>
    <path d="M 639 302 L 655 331 L 648 301 L 656 333 L 649 301 L 658 338 L 650 301 L 659 340 L 651 301 L 661 344 L 652 301 L 662 346 L 653 301 L 663 348 L 654 301 L 665 353 L 655 301 L 666 356 L 656 301 L 667 358 L 657 301 L 668 361 L 658 301 L 669 363 L 659 301 L 670 366 L 660 301 L 671 369 L 661 302 L 672 372 L 662 303 L 673 375 L 663 304 L 674 378 L 664 306 L 675 382 L 665 307 L 676 386 L 666 308 L 677 390 L 668 311 L 678 394 L 669 312 L 679 398 L 671 315 L 680 402 L 673 319 L 681 407 L 674 320 L 682 412 L 676 323 L 683 418 L 678 326 L 684 424 L 681 331 L 685 432 L 686 340 L 686 442 L 692 351 L 687 445 L 693 354 L 687 448 L 694 356 L 687 449 L 695 358 L 687 451 L 696 360 L 687 452 L 697 363 L 687 453 L 698 365 L 687 454 L 699 367 L 687 455 L 701 373 L 687 456 L 702 375 L 687 457 L 706 387 L 687 459 L 709 401 L 712 417 L 687 460 L 713 417 L 716 440 L 687 461 L 716 441 L 717 460 L 716 469 L 687 462 L 716 470 L 714 495 L 687 463 L 714 496 L 711 516 L 687 464 L 711 517 L 708 530 L 687 465 L 707 530 L 687 466 L 704 540 L 687 467 L 702 546 L 687 468 L 700 551 L 687 469 L 693 571 L 687 478 L 692 573 L 687 481 L 691 575 L 686 483 L 686 584 L 685 494 L 682 591 L 684 501 L 679 596 L 683 508 L 677 600 L 682 513 L 675 603 L 681 518 L 673 606 L 680 523 L 671 608 L 679 528 L 670 610 L 678 532 L 669 611 L 677 536 L 667 614 L 676 539 L 666 615 L 675 543 L 665 617 L 674 547 L 664 618 L 673 550 L 662 621 L 672 553 L 661 622 L 671 556 L 660 623 L 670 558 L 659 623 L 669 561 L 658 623 L 668 564 L 657 623 L 667 566 L 656 623 L 666 569 L 655 623 L 664 574 L 654 623 L 663 576 L 653 623 L 662 578 L 652 623 L 660 583 L 651 623 L 659 585 L 650 623 L 658 587 L 649 623 L 656 591 L 648 623 L 655 593 L 639 622 Z"/>
    <path d="M 427 488 L 512 324 L 598 491 L 607 527 L 588 520 L 607 528 L 586 520 L 607 529 L 586 521 L 607 531 L 585 522 L 607 533 L 585 523 L 607 534 L 585 524 L 607 535 L 585 525 L 607 536 L 584 525 L 607 537 L 584 526 L 607 538 L 584 527 L 607 539 L 583 529 L 606 542 L 582 529 L 606 543 L 582 530 L 606 544 L 581 532 L 605 547 L 581 533 L 605 548 L 580 535 L 604 551 L 578 538 L 602 556 L 576 540 L 598 563 L 574 543 L 597 565 L 573 544 L 595 567 L 572 546 L 595 568 L 571 547 L 594 569 L 570 548 L 592 571 L 569 549 L 591 572 L 568 550 L 589 574 L 567 551 L 588 575 L 566 552 L 587 576 L 565 553 L 585 578 L 564 554 L 584 579 L 561 556 L 580 582 L 560 557 L 578 583 L 558 558 L 575 585 L 557 559 L 574 585 L 555 560 L 571 586 L 552 562 L 567 589 L 551 563 L 565 590 L 549 564 L 556 594 L 544 567 L 549 596 L 539 569 L 545 597 L 536 570 L 544 597 L 535 570 L 540 598 L 532 572 L 538 598 L 531 572 L 537 598 L 530 572 L 533 599 L 527 573 L 532 599 L 527 574 L 531 599 L 526 574 L 530 599 L 525 574 L 529 599 L 524 574 L 528 599 L 524 575 L 524 600 L 521 576 L 523 600 L 520 576 L 522 600 L 519 576 L 521 600 L 518 577 L 520 600 L 517 577 L 518 600 L 516 578 L 517 600 L 515 578 L 516 600 L 514 578 L 514 600 L 513 579 L 513 600 L 512 579 L 512 600 L 460 591 L 420 553 L 426 489 Z"/>
    
  </g>
</svg>
